<svg width="26" height="23" viewBox="0 0 26 23" fill="none" xmlns="http://www.w3.org/2000/svg">
<g clip-path="url(#clip0_1_28)">
<path d="M0.333496 0.800283C0.515578 0.391555 0.823941 0.243243 1.26691 0.249195C2.61784 0.26854 3.96925 0.255643 5.32067 0.256635C5.85223 0.256635 6.08766 0.441654 6.21003 0.974885C6.37841 1.71198 6.53748 2.45156 6.70831 3.22686C6.80522 3.22686 6.90752 3.22686 7.01031 3.22686C12.8227 3.22686 18.6351 3.2338 24.4471 3.21594C25.0422 3.21396 25.4847 3.63509 25.285 4.3325C24.3281 7.67326 23.3932 11.021 22.45 14.3657C22.2851 14.951 22.0785 15.1063 21.4696 15.1063C17.1633 15.1063 12.857 15.1063 8.55066 15.1063C8.10622 15.1063 7.8238 15.2744 7.71024 15.6028C7.55117 16.0636 7.84974 16.5284 8.34606 16.5864C8.44248 16.5978 8.54136 16.5928 8.63876 16.5928C12.9612 16.5933 17.2842 16.5928 21.6067 16.5933C22.0775 16.5933 22.3981 16.8781 22.4123 17.3022C22.4265 17.7278 22.1177 18.0656 21.6953 18.0745C21.3375 18.0819 20.9797 18.076 20.6145 18.0928C21.2092 18.2397 21.6967 18.5487 22.0364 19.0616C22.383 19.5849 22.4921 20.1667 22.3609 20.7858C22.1373 21.8418 21.1598 22.5888 20.0908 22.5278C19.0292 22.4673 18.1677 21.6474 18.0341 20.5616C17.9239 19.6682 18.3742 18.4698 19.8627 18.0879C16.6322 18.0879 13.4458 18.0879 10.2589 18.0879C10.8423 18.2377 11.3294 18.5398 11.6695 19.0477C12.0136 19.5611 12.1272 20.13 12.0127 20.7446C11.8203 21.7759 10.8776 22.5482 9.82572 22.5318C8.75134 22.5154 7.85366 21.7163 7.68773 20.6285C7.51103 19.4698 8.16692 18.5348 9.51295 18.077C9.14878 18.077 8.8321 18.0775 8.51493 18.077C7.38377 18.0755 6.52916 17.4321 6.25604 16.3766C6.00103 15.3915 6.46259 14.3964 7.42635 13.8508C7.45376 13.8354 7.47873 13.8156 7.51201 13.7928C6.63097 9.77592 5.7514 5.76355 4.86889 1.73976C4.09651 1.73976 3.34029 1.73976 2.58406 1.73976C2.15284 1.73976 1.72015 1.71893 1.28991 1.74571C0.841073 1.773 0.519004 1.61972 0.333496 1.19611C0.333496 1.06417 0.333496 0.932227 0.333496 0.800283ZM23.6345 4.71891C18.0908 4.71891 12.5736 4.71891 7.0338 4.71891C7.68577 7.69161 8.33431 10.6509 8.98286 13.6077C13.043 13.6077 17.085 13.6077 21.128 13.6077C21.9635 10.6455 22.7951 7.69707 23.6345 4.71891ZM10.5903 20.3255C10.6045 19.9361 10.2711 19.5794 9.87956 19.5651C9.49533 19.5507 9.1434 19.8885 9.12921 20.2853C9.11501 20.6747 9.44834 21.0313 9.83991 21.0457C10.2241 21.0601 10.5756 20.7228 10.5903 20.3255ZM20.2523 19.5665C19.8705 19.5407 19.5132 19.8686 19.4868 20.2689C19.4614 20.6558 19.7849 21.0179 20.1799 21.0447C20.5617 21.0705 20.919 20.7426 20.9454 20.3423C20.9709 19.9549 20.6473 19.5933 20.2523 19.5665Z" fill="#2C2C2C"/>
</g>
<defs>
<clipPath id="clip0_1_28">
<rect width="25" height="22.2826" fill="white" transform="translate(0.333496 0.25)"/>
</clipPath>
</defs>
</svg>
