<svg width="395" height="254" viewBox="0 0 395 254" fill="none" xmlns="http://www.w3.org/2000/svg">
<path d="M182.606 25.1757H44.1536C38.2601 25.1757 33.4824 29.9533 33.4824 35.8468V174.3C33.4824 180.193 38.2601 184.971 44.1536 184.971H182.606C188.5 184.971 193.277 180.193 193.277 174.3V35.8468C193.277 29.9533 188.5 25.1757 182.606 25.1757Z" fill="#46B20F"/>
<path d="M113.01 209.384C125.063 209.384 134.834 199.613 134.834 187.56C134.834 175.507 125.063 165.736 113.01 165.736C100.957 165.736 91.1863 175.507 91.1863 187.56C91.1863 199.613 100.957 209.384 113.01 209.384Z" fill="#46B20F"/>
<path d="M22.756 132.84C34.8091 132.84 44.5801 123.069 44.5801 111.015C44.5801 98.9623 34.8091 89.1913 22.756 89.1913C10.7029 89.1913 0.931885 98.9623 0.931885 111.015C0.931885 123.069 10.7029 132.84 22.756 132.84Z" fill="#FF6916"/>
<path d="M198.826 98.8716C210.879 98.8716 220.65 89.1007 220.65 77.0475C220.65 64.9944 210.879 55.2234 198.826 55.2234C186.773 55.2234 177.002 64.9944 177.002 77.0475C177.002 89.1007 186.773 98.8716 198.826 98.8716Z" fill="#FF6916"/>
<path d="M119.871 1.34487C119.871 1.34487 106.608 -0.764277 103.046 22.6493C99.0883 48.6794 88.5206 44.3971 71.7387 65.5329C61.9303 77.8837 72.2519 99.6944 93.2266 99.2617C114.202 98.8402 133.144 92.7758 145.209 95.3699C157.275 97.9646 157.938 67.0626 146.033 57.5279C134.129 47.9938 159.51 20.6138 144.044 8.42198C128.577 -3.77034 119.871 1.34487 119.871 1.34487Z" fill="#31446C"/>
<path d="M40.5905 104.591C39.3809 102.105 39.4546 99.2174 39.891 96.5229C41.7814 84.957 49.8872 75.2922 59.1775 68.2097C68.4988 61.1092 79.1672 56.0398 88.974 49.6766C91.5191 48.0194 94.0706 46.2346 96.9923 45.3388C99.9146 44.4435 103.311 44.5401 105.724 46.4241C107.428 47.7462 108.412 49.7908 108.985 51.8354C110.241 56.313 109.759 61.0537 108.994 65.5953C108.036 71.3236 106.63 76.9926 104.322 82.2578C102.471 86.5049 99.4595 90.8752 94.9328 91.7071C93.6229 96.7828 90.9263 101.54 87.1434 105.179C82.8173 109.352 77.3318 112.081 71.6393 113.987C66.3944 115.746 60.6576 116.895 55.3818 115.253C52.2503 114.296 49.4924 112.455 46.7953 110.578C44.3889 108.978 41.8913 107.228 40.5905 104.591ZM87.9933 96.8783L91.0896 91.9626C90.4296 92.0304 89.8064 92.159 89.1773 92.4146C87.4774 93.1503 86.4535 95.8277 87.9933 96.8783Z" fill="#31446C"/>
<path d="M145.369 21.9354C145.529 22.8045 145.559 23.7153 145.5 24.7547C145.147 30.818 143.842 36.8238 141.633 42.4688C140.281 45.8291 138.627 49.1415 136.288 51.924C135.316 53.0791 134.216 54.1462 132.78 54.5581C131.299 54.969 129.435 55.0271 127.966 54.6584C126.671 60.0137 127.211 70.122 131.835 73.9199C133.249 75.0686 134.928 75.7873 136.609 76.4196C139.884 77.683 143.294 78.6456 146.707 79.3909C150.596 80.2302 154.834 80.8582 157.565 83.717C157.906 84.0692 158.246 84.551 158.109 85.0258C158.017 85.3278 157.797 85.5413 157.534 85.7104C155.384 87.4551 152.726 88.4118 150.067 89.3247C145.405 90.9014 140.617 92.2155 135.749 93.0954C130.663 94.0152 125.412 94.4554 120.262 93.9005C116.28 93.4496 112.351 92.4364 108.737 90.6479C104.951 88.7698 101.073 87.2369 97.1561 85.4436C93.8411 83.9192 90.5736 82.1793 86.9849 81.5615C88.681 78.3361 92.2196 76.5257 95.7437 75.6689C99.2674 74.8557 102.953 74.7815 106.518 74.0986C107.692 73.8564 108.867 73.5709 109.874 72.8495C112.636 70.854 111.88 66.4212 111.923 63.5176L112.063 54.3298C111.653 49.9455 109.845 46.2773 108.258 42.265C105.838 36.1163 105.337 29.1299 107.47 22.8334C109.602 16.5801 114.453 11.149 120.685 8.94646C126.917 6.7434 134.397 7.98445 139.183 12.565C142.216 15.5156 144.69 18.1541 145.369 21.9354Z" fill="#F8AE9D"/>
<path d="M126.204 2.39914C132.415 1.70605 138.075 4.74786 142.272 9.4629C145.802 13.415 147.877 18.6326 147.773 23.8743C147.758 24.6234 147.673 25.4387 147.251 26.1115C146.129 27.7234 143.689 27.1301 141.865 26.4124C138.892 25.2637 136.677 23.5846 133.982 22.169C131.286 20.753 128.012 20.96 125.6 19.005C123.322 17.1205 115.501 13.1503 115.29 10.0813C115.024 6.33039 121.896 3.2667 124.769 2.64351C125.18 2.51545 125.658 2.45677 126.204 2.39914Z" fill="#31446C"/>
<path d="M108.309 10.8901C103.057 14.2782 100.592 20.2119 100.319 26.5175C100.08 31.812 101.768 37.1673 105.161 41.1642C105.646 41.7351 106.227 42.3134 106.979 42.5685C108.867 43.109 110.383 41.1071 111.344 39.3981C112.923 36.6289 113.578 33.9286 114.773 31.128C115.968 28.3268 118.636 26.4193 119.27 23.3791C119.845 20.4792 123.398 12.4604 121.623 9.9484C119.458 6.87351 112.197 8.84073 109.576 10.1725C109.176 10.3331 108.769 10.5897 108.309 10.8907V10.8901Z" fill="#31446C"/>
<path d="M155.027 82.3778C155.857 82.0006 156.85 82.2759 157.402 83.0207C163.599 91.698 165.991 102.571 168.086 113.049C170.463 124.963 172.578 136.915 174.607 148.867C174.729 149.475 174.805 150.127 174.536 150.686C174.268 151.246 173.657 151.54 173.089 151.791C169.509 153.514 165.885 155.193 162.305 156.916C158.45 148.145 155.643 138.869 154.009 129.438C151.71 135.254 147.559 140.307 142.264 143.607C146.209 149.259 150.682 159.668 155.418 164.638C156.041 166.425 155.091 164.965 153.459 164.965C150.765 165.357 150.865 164.712 148.56 164.638C145.228 164.241 144.114 164.485 140.771 164.825C135.213 165.434 129.812 167.172 124.874 169.785C122.419 171.091 120.064 172.577 117.827 174.229C115.899 175.673 111.122 179.069 111.122 179.069C110.771 179.324 109.13 178.952 108.741 178.859C107.608 178.667 106.468 178.519 105.323 178.418C102.466 178.2 99.5674 177.81 96.7577 177.29C91.095 176.251 85.5274 174.649 80.1859 172.444C79.6716 172.046 81.5065 168.259 81.6041 167.524C81.507 168.216 70.9869 167.362 69.9491 167.173C65.8007 166.33 61.6032 165.876 57.4553 164.99C59.3126 148.285 64.4129 132.151 69.4241 116.146C71.3838 109.847 73.3868 103.548 76.1645 97.6087C79.1215 91.2818 82.9391 85.3577 87.5271 80.0958C87.6595 79.9677 87.8771 79.8839 88.05 79.9304C90.252 80.4837 103.681 83.939 110.362 86.4243C113.766 87.7331 117.216 88.9128 120.71 90.0925C122.089 90.5471 123.513 91.0022 124.944 90.9809C125.898 90.9515 126.855 90.7498 127.768 90.5466C137.076 88.4774 146.386 86.2349 155.027 82.3778Z" fill="white"/>
<path d="M150.576 115.177C151.788 120.417 152.662 125.707 153.254 131.106M94.4447 115.658C94.0621 118.037 93.5483 120.457 93.0355 122.833C91.7874 128.225 90.1863 133.529 88.2426 138.712C87.2502 141.297 86.2145 143.839 85.0487 146.379C84.4661 147.628 83.884 148.876 83.2581 150.123C82.9454 150.725 82.6322 151.37 82.3196 151.973C82.0517 152.489 81.7412 152.961 81.4739 153.434C83.3387 153.376 92.542 153.906 94.4468 154.065L94.4447 115.658Z" stroke="white" stroke-width="1.14667" stroke-miterlimit="10" stroke-linecap="round"/>
<path d="M337.068 249.056H198.615C192.721 249.056 187.944 244.278 187.944 238.385V99.9318C187.944 94.0383 192.721 89.2606 198.615 89.2606H337.068C342.961 89.2606 347.739 94.0383 347.739 99.9318V238.385C347.739 244.278 342.961 249.056 337.068 249.056Z" fill="#FF6916"/>
<path d="M267.471 64.8477C279.524 64.8477 289.295 74.6187 289.295 86.6718C289.295 98.7249 279.524 108.496 267.471 108.496C255.418 108.496 245.647 98.7249 245.647 86.6718C245.647 74.6187 255.418 64.8477 267.471 64.8477Z" fill="#FF6916"/>
<path d="M177.217 141.392C189.27 141.392 199.041 151.163 199.041 163.217C199.041 175.27 189.27 185.041 177.217 185.041C165.164 185.041 155.393 175.27 155.393 163.217C155.393 151.163 165.164 141.392 177.217 141.392Z" fill="#46B20F"/>
<path d="M353.287 175.36C365.34 175.36 375.111 185.131 375.111 197.184C375.111 209.237 365.34 219.008 353.287 219.008C341.234 219.008 331.463 209.237 331.463 197.184C331.463 185.131 341.234 175.36 353.287 175.36Z" fill="#46B20F"/>
<path d="M282.042 69.3675C282.676 71.9008 281.835 74.535 280.449 76.7476C279.469 78.3109 278.099 76.5849 276.102 76.308C273.013 75.8752 271.057 72.6051 270.388 64.638C270.079 58.8185 270.225 55.9154 270.549 55.4075C271.703 53.5891 274.671 52.9803 277.011 53.1558" fill="#31446C"/>
<path fill-rule="evenodd" clip-rule="evenodd" d="M201.234 97.6833C201.234 97.6833 203.403 85.5967 202.623 83.1493C201.957 81.0342 195.661 77.9839 195.661 77.9839C195.661 77.9839 184.711 60.6865 182.315 62.4478C180.365 63.8756 188.018 76.6281 188.018 76.6281C188.018 76.6281 181.04 83.9485 181.137 87.2208C181.235 90.4937 192.526 100.737 192.526 100.737L201.234 97.6833ZM313.774 100.523C313.774 100.523 306.563 98.83 306.313 87.0138C306.062 75.1971 306.238 71.1639 306.238 71.1639L289.142 70.8769C289.142 70.8769 288.969 84.0462 288.966 88.8098C288.959 99.1794 281.258 101.981 281.258 101.981C281.258 101.981 281.898 113.32 296.291 114.13C307.53 114.763 313.774 100.523 313.774 100.523Z" fill="#F8AE9D"/>
<path fill-rule="evenodd" clip-rule="evenodd" d="M307.809 65.1908C314.894 64.9166 313.739 75.29 306.378 75.2761C306.378 75.2761 298.467 91.1831 286.047 91.2242C280.064 91.2439 278.11 85.9147 276.317 82.174C274.523 78.4327 273.207 72.8372 273.098 69.4107C272.98 65.7575 272.965 53.7556 272.965 53.7556L308.085 53.7396L307.809 65.1908Z" fill="#F8AE9D"/>
<path fill-rule="evenodd" clip-rule="evenodd" d="M280.988 101.278C280.988 101.278 262.57 107.027 258.132 113.896C243.834 126.456 225.952 143.706 225.952 143.706C225.952 143.706 208.921 100.961 203.354 96.0875C199.544 92.7533 191.953 96.8761 190.539 101.114C188.722 106.556 200.387 138.48 205.897 153.556L205.897 153.558C206.964 156.478 207.8 158.766 208.262 160.107C211.622 169.853 219.795 175.443 229.742 169.249C233.752 166.752 245.683 158.57 255.863 151.152C256.022 158.945 256.291 167.156 256.545 174.955V174.955C257.164 193.902 257.703 210.412 256.407 212.558C249.987 223.191 258.523 230.491 286.787 233.173C315.05 235.855 340.124 233.659 335.575 219.468C334.626 216.511 334.638 210.146 335.111 201.877C337.88 201.73 340.647 201.547 343.411 201.33C355.207 200.401 363.93 195.332 365.146 182.169C365.999 172.952 348.438 129.678 341.853 115.448C340.312 112.119 337.931 110.046 335.232 109.013C334.604 108.312 333.897 107.819 333.102 107.557C328.265 105.963 310.922 98.6768 310.922 98.6768L290.291 112.175L280.988 101.278ZM337.022 177.453L337.068 177.572L337.011 177.58L337.022 177.453Z" fill="white"/>
<path fill-rule="evenodd" clip-rule="evenodd" d="M291.243 188.873C291.243 188.873 284.951 187.608 282.376 185.586C279.801 183.565 272.002 182.135 272.002 182.135L274.497 187.39C274.497 187.39 255.381 185.596 254.929 187.482C254.476 189.367 260.005 191.417 260.005 191.417C260.005 191.417 262.731 196.51 265.371 199.462C267.868 202.255 280.275 201.923 284.625 200.179C288.383 198.673 292.47 199.426 292.47 199.426L291.243 188.873Z" fill="#F8AE9D"/>
<path d="M305.881 54.2289C304.846 55.5846 303.02 55.8829 301.516 56.1513C299.495 56.5109 298.495 57.2616 297.445 59.2753C296.781 60.5622 296.116 61.9708 294.927 62.6676C293.958 63.238 293.988 61.7953 293.845 60.6801C293.831 60.576 293.811 60.4728 293.784 60.3712C293.552 59.4796 292.606 59.629 292.332 60.5083C292.08 61.3049 291.541 61.9788 290.856 62.3539C290.744 62.4152 290.625 62.4686 290.506 62.4457C290.345 62.4227 290.219 62.2696 290.115 62.1319C289.896 61.8454 289.679 61.4815 289.456 61.0968C288.716 59.8243 287.304 60.2709 286.477 61.4885C285.959 62.2466 285.344 63.0278 284.497 63.2038C284.225 63.2652 283.882 63.2193 283.756 62.9509C283.595 62.6217 283.847 62.2925 283.805 61.9559C283.77 61.6416 283.637 61.5039 283.49 61.2356C282.917 60.2021 281.589 60.1642 280.78 61.0259C280.217 61.6248 279.63 62.2007 279.02 62.7519C278.761 62.9819 278.384 63.2113 278.125 62.9819C277.985 62.8592 277.95 62.6527 277.922 62.4531C277.775 61.481 277.635 60.5083 277.488 59.5356C277.404 58.9919 277.118 58.2802 276.628 58.4178C276.39 58.4867 276.25 58.7396 276.117 58.969C275.957 59.2603 273.081 62.5758 273.025 62.3235C272.578 60.4395 271.661 58.7241 271.214 56.8401C268.318 44.7182 281.168 34.9701 290.982 34.9162C293.164 34.9008 295.158 34.937 297.278 35.4503C299.537 36.0015 301.922 36.8765 303.972 38.1096C306.846 39.8324 309.022 42.9644 308.463 46.7015" fill="#31446C"/>
<path d="M297.9 50.3105C296.517 51.8935 296.15 54.1201 296.022 56.2239C295.832 59.3964 296.089 62.6922 297.541 65.5083C297.955 66.3103 298.26 70.2778 298.897 70.0585C299.101 69.9897 299.067 66.9132 299.603 65.2549C300.431 62.6853 304.243 61.7057 305.96 63.3298C308.7 65.9128 307.092 69.0511 306.184 71.004C305.641 72.1826 304.779 73.5047 304.63 74.7522C304.447 76.3486 304.393 82.166 305.424 83.5228C306.285 84.6604 307.201 79.1647 307.981 78.0821C315.242 73.2294 319.29 49.4813 309.433 45.0277C307.934 44.349 303.307 43.9996 301.903 44.8629" fill="#31446C"/>
<path d="M358.343 32.3894L368.99 38.3513L369.735 40.9065L368.351 43.9942C366.328 44.6687 361.899 45.9956 360.366 45.9108C358.832 45.8254 356.817 47.2948 356.001 48.0402C355.717 49.6724 355.127 53.1293 355.042 53.8955C354.957 54.6622 353.446 58.5449 352.7 60.3905H347.483L345.567 56.1316L336.304 34.093L334.281 26.214L335.665 24.0851L342.479 27.0661L358.343 32.3894Z" fill="#46B20F"/>
<path fill-rule="evenodd" clip-rule="evenodd" d="M338.742 22.1642C334.385 20.3485 330.013 24.7204 331.828 29.0785L344.356 59.145C346.806 65.0253 355.424 64.0313 356.471 57.7481L358.034 48.3704L367.412 46.807C373.696 45.7602 374.69 37.1422 368.809 34.6921L338.742 22.1642ZM335.733 27.4517C335.37 26.5799 336.244 25.7054 337.115 26.0687L367.182 38.5967C369.142 39.413 368.811 42.2857 366.717 42.6351L357.339 44.1979C356.469 44.3428 355.667 44.7557 355.043 45.3791C354.42 46.0025 354.007 46.805 353.862 47.6746L352.299 57.0524C351.95 59.1471 349.077 59.4785 348.26 57.5182L335.733 27.4517Z" fill="#46B20F"/>
<path fill-rule="evenodd" clip-rule="evenodd" d="M34.6051 231.613H37.6848C38.0412 231.613 38.3831 231.754 38.6352 232.006C38.8873 232.258 39.029 232.6 39.0293 232.957V236.036C39.029 236.393 38.8873 236.735 38.6352 236.987C38.3831 237.239 38.0413 237.381 37.6848 237.381H34.6051C34.249 237.379 33.9079 237.237 33.6562 236.985C33.4045 236.734 33.2624 236.392 33.261 236.036V232.957C33.2546 232.218 33.8602 231.613 34.6051 231.613ZM45.2826 231.613H48.3623C48.7184 231.614 49.0595 231.756 49.3113 232.008C49.5632 232.26 49.7053 232.601 49.7069 232.957V236.036C49.7066 236.393 49.5648 236.735 49.3127 236.987C49.0606 237.239 48.7188 237.381 48.3623 237.381H45.2826C44.9265 237.379 44.5855 237.237 44.3338 236.985C44.082 236.734 43.94 236.392 43.9386 236.036V232.957C43.9398 232.601 44.0819 232.259 44.3336 232.008C44.5854 231.756 44.9265 231.614 45.2826 231.613ZM55.9676 231.613H59.0473C59.4034 231.614 59.7445 231.756 59.9963 232.008C60.2482 232.26 60.3903 232.601 60.3919 232.957V236.036C60.3916 236.393 60.2499 236.735 59.9978 236.987C59.7457 237.239 59.4038 237.381 59.0473 237.381H55.9676C55.6115 237.379 55.2705 237.237 55.0188 236.985C54.767 236.734 54.625 236.392 54.6236 236.036V232.957C54.6172 232.218 55.2233 231.613 55.9676 231.613ZM66.6452 231.613H69.7249C70.0809 231.614 70.422 231.756 70.6739 232.008C70.9257 232.26 71.0679 232.601 71.0694 232.957V236.036C71.0691 236.393 70.9274 236.735 70.6753 236.987C70.4232 237.239 70.0814 237.381 69.7249 237.381H66.6452C66.2881 237.381 65.9456 237.239 65.6925 236.987C65.4394 236.735 65.2964 236.393 65.2947 236.036V232.957C65.2985 232.6 65.4422 232.26 65.6948 232.008C65.9474 231.757 66.2888 231.615 66.6452 231.613ZM77.3243 231.613H80.404C80.7611 231.613 81.1036 231.754 81.3567 232.006C81.6097 232.258 81.7528 232.6 81.7544 232.957V236.036C81.7541 236.213 81.7189 236.389 81.6508 236.552C81.5828 236.715 81.4832 236.864 81.3578 236.988C81.2324 237.113 81.0836 237.212 80.9199 237.28C80.7563 237.347 80.581 237.381 80.404 237.381H77.3243C76.9682 237.38 76.627 237.237 76.3751 236.986C76.1233 236.734 75.9812 236.393 75.9798 236.036V232.957C75.9813 232.601 76.1235 232.26 76.3753 232.008C76.6271 231.756 76.9682 231.614 77.3243 231.613ZM45.6748 243.256H48.7545C49.1105 243.258 49.4517 243.4 49.7034 243.652C49.9552 243.903 50.0972 244.244 50.0985 244.6V247.687C50.0972 248.043 49.9552 248.384 49.7034 248.636C49.4517 248.887 49.1105 249.029 48.7545 249.031H45.6748C45.3183 249.031 44.9765 248.889 44.7244 248.637C44.4723 248.385 44.3305 248.043 44.3302 247.687V244.607C44.3292 244.43 44.3632 244.254 44.4303 244.09C44.4974 243.926 44.5963 243.777 44.7213 243.652C44.8463 243.526 44.9949 243.427 45.1585 243.359C45.3222 243.291 45.4976 243.256 45.6748 243.256ZM56.3523 243.256H59.432C59.7881 243.258 60.1292 243.4 60.381 243.652C60.6328 243.903 60.7748 244.244 60.776 244.6V247.687C60.7748 248.043 60.6328 248.384 60.381 248.636C60.1292 248.887 59.7881 249.029 59.432 249.031H56.3523C55.9962 249.029 55.6551 248.887 55.4033 248.635C55.1515 248.384 55.0093 248.043 55.0078 247.687V244.607C55.0068 244.43 55.0408 244.254 55.108 244.09C55.1751 243.926 55.274 243.777 55.399 243.652C55.524 243.526 55.6726 243.427 55.8362 243.359C55.9998 243.291 56.1752 243.256 56.3523 243.256ZM67.0309 243.256H70.1106C70.4677 243.256 70.8103 243.398 71.0634 243.65C71.3165 243.901 71.4595 244.243 71.4611 244.6V247.687C71.4595 248.044 71.3165 248.386 71.0634 248.638C70.8103 248.889 70.4677 249.031 70.1106 249.031H67.0309C66.6749 249.029 66.3338 248.887 66.0819 248.635C65.8301 248.384 65.6879 248.043 65.6864 247.687V244.607C65.6865 244.25 65.828 243.907 66.08 243.654C66.3319 243.401 66.6738 243.258 67.0309 243.256ZM55.9676 219.104H59.0473C59.4034 219.105 59.7445 219.247 59.9963 219.499C60.2482 219.751 60.3903 220.092 60.3919 220.448V223.528C60.3916 223.884 60.2499 224.226 59.9978 224.478C59.7457 224.73 59.4038 224.872 59.0473 224.872H55.9676C55.6115 224.871 55.2705 224.729 55.0188 224.477C54.767 224.225 54.625 223.884 54.6236 223.528V220.448C54.6172 219.71 55.2233 219.104 55.9676 219.104ZM45.2933 219.104H48.3735C48.7296 219.105 49.0707 219.247 49.3225 219.499C49.5743 219.751 49.7163 220.092 49.7175 220.448V223.528C49.7173 223.884 49.5756 224.226 49.3236 224.478C49.0716 224.73 48.7299 224.872 48.3735 224.872H45.2933C44.9372 224.871 44.5962 224.729 44.3444 224.477C44.0927 224.225 43.9507 223.884 43.9493 223.528V220.448C43.9428 219.71 44.549 219.104 45.2933 219.104ZM66.6452 219.104H69.7249C70.0809 219.105 70.422 219.247 70.6739 219.499C70.9257 219.751 71.0679 220.092 71.0694 220.448V223.528C71.0691 223.884 70.9274 224.226 70.6753 224.478C70.4232 224.73 70.0814 224.872 69.7249 224.872H66.6452C66.2881 224.872 65.9456 224.731 65.6925 224.479C65.4394 224.227 65.2964 223.885 65.2947 223.528V220.448C65.2985 220.092 65.4422 219.751 65.6948 219.5C65.9474 219.248 66.2888 219.106 66.6452 219.104Z" fill="#E1E4E5"/>
<path d="M17.0312 52.283C13.9371 52.283 11.4288 49.7748 11.4288 46.6807C11.4288 43.5866 13.9371 41.0783 17.0312 41.0783C20.1253 41.0783 22.6335 43.5866 22.6335 46.6807C22.6335 49.7748 20.1253 52.283 17.0312 52.283Z" fill="#46B20F"/>
<path d="M381.364 108.731C378.563 108.731 376.291 106.459 376.291 103.658C376.291 100.856 378.563 98.5846 381.364 98.5846C384.166 98.5846 386.438 100.856 386.438 103.658C386.438 106.459 384.166 108.731 381.364 108.731Z" fill="#FF6916"/>
<path d="M150.54 214.394C146.938 214.394 144.018 211.473 144.018 207.871C144.018 204.269 146.938 201.348 150.54 201.348C154.143 201.348 157.063 204.269 157.063 207.871C157.063 211.473 154.143 214.394 150.54 214.394Z" fill="#E1E4E5"/>
<path d="M120.968 253.435C118.488 253.435 116.478 251.424 116.478 248.944C116.478 246.464 118.488 244.454 120.968 244.454C123.448 244.454 125.459 246.464 125.459 248.944C125.459 251.424 123.448 253.435 120.968 253.435Z" fill="#FF6916"/>
<path d="M76.9516 14.5306C72.9915 14.5306 69.7811 11.3203 69.7811 7.36014C69.7811 3.4 72.9915 0.189667 76.9516 0.189667C80.9117 0.189667 84.1221 3.4 84.1221 7.36014C84.1221 11.3203 80.9117 14.5306 76.9516 14.5306Z" fill="#E1E4E5"/>
<path d="M259.155 25.1137C254.752 25.1137 251.183 21.5446 251.183 17.1419C251.183 12.7391 254.752 9.16998 259.155 9.16998C263.558 9.16998 267.127 12.7391 267.127 17.1419C267.127 21.5446 263.558 25.1137 259.155 25.1137Z" fill="#E1E4E5"/>
<path d="M16.0157 186.711C17.039 190.53 14.7726 194.455 10.9537 195.478C7.13475 196.502 3.20935 194.235 2.18607 190.416C1.16279 186.597 3.42912 182.672 7.24806 181.649C11.067 180.625 14.9924 182.892 16.0157 186.711Z" fill="#E1E4E5"/>
<path d="M370.463 143.622C366.417 143.622 363.137 140.998 363.137 137.762C363.137 134.525 366.417 131.901 370.463 131.901C374.509 131.901 377.789 134.525 377.789 137.762C377.789 140.998 374.509 143.622 370.463 143.622Z" fill="#E1E4E5"/>
<path d="M318.381 12.1705C319.445 16.1423 317.088 20.2248 313.117 21.289C309.145 22.3533 305.062 19.9962 303.998 16.0244C302.934 12.0526 305.291 7.97012 309.263 6.90588C313.234 5.84164 317.317 8.19868 318.381 12.1705Z" fill="#E1E4E5"/>
<path d="M385.519 160.638H385.653C386.452 171.862 394.867 172.035 394.867 172.035C394.867 172.035 385.588 172.214 385.588 185.184C385.588 172.214 376.308 172.035 376.308 172.035C376.308 172.035 384.72 171.862 385.519 160.638ZM232.263 39.1042H232.433C233.44 53.6575 244.051 53.8816 244.051 53.8816C244.051 53.8816 232.351 54.1142 232.351 70.9303C232.351 54.1142 220.65 53.8816 220.65 53.8816C220.65 53.8816 231.256 53.6575 232.263 39.1042Z" fill="#E1E4E5"/>
</svg>
