<svg width="480" height="390" viewBox="0 0 480 390" fill="none" xmlns="http://www.w3.org/2000/svg">
<g clip-path="url(#clip0_17_1676)">
<path d="M382.864 71.3043C380.375 98.7676 373.284 127.726 362.162 155.667C348.409 190.22 329.619 220.654 307.822 243.679L306.613 242.623C328.304 219.709 347.009 189.409 360.704 154.999C373.082 123.903 380.444 91.5437 382.004 61.4325L383.55 61.6917C383.386 64.8718 383.157 68.076 382.864 71.3043Z" fill="#F2F2F2"/>
<path d="M392.778 230.806C362.163 279.579 325.021 314.427 288.193 328.93L287.448 327.563C324.021 313.159 360.946 278.489 391.42 229.94L392.778 230.806Z" fill="#F2F2F2"/>
<path d="M382.121 105.497C379.632 132.961 372.54 161.919 361.419 189.86C347.666 224.413 328.876 254.847 307.079 277.872L305.87 276.816C327.561 253.902 346.265 223.602 359.961 189.192C372.339 158.096 379.701 125.737 381.261 95.6255L382.807 95.8846C382.642 99.0647 382.414 102.269 382.121 105.497Z" fill="#F2F2F2"/>
<path d="M38.4342 176.004H18.3474C17.9183 176.005 17.4945 175.908 17.1078 175.722C16.7212 175.535 16.3817 175.264 16.1149 174.927C15.8514 174.599 15.6654 174.215 15.5711 173.805C15.4767 173.395 15.4763 172.969 15.57 172.558C17.4831 164.105 17.3629 155.318 15.2194 146.921C15.0838 146.368 15.1166 145.787 15.3135 145.253C15.5104 144.719 15.8625 144.256 16.3243 143.924C26.653 136.485 34.7872 136.701 40.5011 144.567C40.7586 144.925 40.9298 145.339 41.001 145.774C42.5277 154.965 42.6122 164.338 41.2514 173.555C41.1568 174.235 40.8193 174.858 40.3013 175.309C39.7834 175.759 39.1201 176.006 38.4342 176.004Z" fill="#E6E6E6"/>
<path d="M32.2068 155.861H25.2969C24.9148 155.861 24.5483 155.709 24.2782 155.438C24.008 155.168 23.8562 154.801 23.8562 154.418C23.8562 154.036 24.008 153.669 24.2782 153.398C24.5483 153.128 24.9148 152.976 25.2969 152.976H32.2068C32.5884 152.976 32.9541 153.129 33.2236 153.399C33.4931 153.67 33.6445 154.036 33.6445 154.418C33.6445 154.8 33.4931 155.167 33.2236 155.437C32.9541 155.708 32.5884 155.86 32.2068 155.861Z" fill="white"/>
<path d="M32.2068 160.921H25.2969C24.9148 160.921 24.5483 160.769 24.2782 160.498C24.008 160.227 23.8562 159.86 23.8562 159.478C23.8562 159.095 24.008 158.728 24.2782 158.458C24.5483 158.187 24.9148 158.035 25.2969 158.035H32.2068C32.5884 158.036 32.9541 158.188 33.2236 158.459C33.4931 158.729 33.6445 159.096 33.6445 159.478C33.6445 159.86 33.4931 160.226 33.2236 160.497C32.9541 160.767 32.5884 160.92 32.2068 160.921Z" fill="white"/>
<path d="M32.2068 165.98H25.2969C24.9148 165.98 24.5483 165.828 24.2782 165.558C24.008 165.287 23.8562 164.92 23.8562 164.538C23.8562 164.155 24.008 163.788 24.2782 163.517C24.5483 163.247 24.9148 163.095 25.2969 163.095H32.2068C32.5884 163.096 32.9541 163.248 33.2236 163.518C33.4931 163.789 33.6445 164.155 33.6445 164.538C33.6445 164.92 33.4931 165.286 33.2236 165.557C32.9541 165.827 32.5884 165.979 32.2068 165.98Z" fill="white"/>
<path d="M403.492 265.813H383.405C382.976 265.813 382.552 265.717 382.166 265.531C381.779 265.344 381.44 265.072 381.173 264.736C380.909 264.408 380.723 264.024 380.629 263.614C380.535 263.204 380.534 262.777 380.628 262.367C382.541 253.914 382.421 245.127 380.277 236.729C380.142 236.177 380.174 235.596 380.371 235.062C380.568 234.528 380.92 234.065 381.382 233.733C391.711 226.294 399.845 226.51 405.559 234.375C405.817 234.734 405.988 235.147 406.059 235.583C407.586 244.774 407.67 254.147 406.309 263.364C406.215 264.044 405.877 264.667 405.359 265.117C404.841 265.567 404.178 265.814 403.492 265.813Z" fill="#E6E6E6"/>
<path d="M397.265 245.67H390.355C389.973 245.669 389.607 245.516 389.338 245.246C389.068 244.975 388.917 244.609 388.917 244.227C388.917 243.845 389.068 243.478 389.338 243.208C389.607 242.937 389.973 242.785 390.355 242.784H397.265C397.647 242.784 398.013 242.936 398.283 243.207C398.554 243.477 398.705 243.844 398.705 244.227C398.705 244.61 398.554 244.976 398.283 245.247C398.013 245.518 397.647 245.67 397.265 245.67Z" fill="white"/>
<path d="M397.265 250.729H390.355C389.973 250.729 389.607 250.576 389.338 250.306C389.068 250.035 388.917 249.669 388.917 249.287C388.917 248.904 389.068 248.538 389.338 248.267C389.607 247.997 389.973 247.845 390.355 247.844H397.265C397.647 247.844 398.013 247.996 398.283 248.266C398.554 248.537 398.705 248.904 398.705 249.287C398.705 249.669 398.554 250.036 398.283 250.307C398.013 250.577 397.647 250.729 397.265 250.729Z" fill="white"/>
<path d="M397.265 255.789H390.355C389.973 255.788 389.607 255.636 389.338 255.365C389.068 255.095 388.917 254.728 388.917 254.346C388.917 253.964 389.068 253.598 389.338 253.327C389.607 253.057 389.973 252.904 390.355 252.904H397.265C397.647 252.904 398.013 253.056 398.283 253.326C398.554 253.597 398.705 253.964 398.705 254.346C398.705 254.729 398.554 255.096 398.283 255.366C398.013 255.637 397.647 255.789 397.265 255.789Z" fill="white"/>
<path d="M479.5 388.831C479.5 388.93 479.481 389.028 479.443 389.119C479.406 389.21 479.35 389.294 479.28 389.364C479.211 389.433 479.128 389.489 479.036 389.527C478.945 389.564 478.847 389.584 478.748 389.583H1.08484C0.885509 389.583 0.694346 389.504 0.553396 389.363C0.412446 389.222 0.333252 389.03 0.333252 388.831C0.333252 388.631 0.412446 388.44 0.553396 388.298C0.694346 388.157 0.885509 388.078 1.08484 388.078H478.748C478.847 388.078 478.945 388.097 479.036 388.135C479.128 388.172 479.211 388.228 479.28 388.298C479.35 388.368 479.406 388.451 479.443 388.542C479.481 388.634 479.5 388.732 479.5 388.831Z" fill="#CCCCCC"/>
<path d="M126.337 342.75L125.084 325.301C116.878 321.193 107.794 319.153 98.6216 319.359C111.526 329.347 110.492 349.31 119.429 362.973C122.249 367.212 125.986 370.762 130.362 373.36C134.739 375.957 139.642 377.534 144.71 377.976L155.45 384.163C156.678 376.032 156.132 367.731 153.848 359.832C151.565 351.933 147.598 344.623 142.222 338.407C139.171 334.95 135.698 331.891 131.884 329.303C129.537 336.052 126.337 342.75 126.337 342.75Z" fill="#F2F2F2"/>
<path d="M353.496 345.28L354.749 327.831C362.955 323.723 372.039 321.683 381.211 321.889C368.307 331.877 369.341 351.84 360.404 365.503C357.584 369.742 353.847 373.292 349.471 375.889C345.095 378.487 340.191 380.064 335.123 380.505L324.383 386.693C323.155 378.562 323.701 370.261 325.985 362.362C328.268 354.462 332.235 347.153 337.611 340.937C340.662 337.48 344.135 334.421 347.949 331.832C350.297 338.581 353.496 345.28 353.496 345.28Z" fill="#F2F2F2"/>
<path d="M234.232 148.375C240.86 148.375 246.233 142.995 246.233 136.358C246.233 129.722 240.86 124.341 234.232 124.341C227.605 124.341 222.232 129.722 222.232 136.358C222.232 142.995 227.605 148.375 234.232 148.375Z" fill="#46B20F"/>
<path d="M240.392 131.35C240.212 131.177 239.972 131.081 239.722 131.081C239.473 131.081 239.233 131.177 239.053 131.35C236.506 133.383 234.219 135.723 232.243 138.315C231.758 137.375 231.273 136.435 230.787 135.495C230.227 134.41 228.592 135.368 229.151 136.452C229.861 137.827 230.571 139.202 231.28 140.578C231.366 140.718 231.486 140.834 231.629 140.914C231.773 140.995 231.934 141.037 232.098 141.037C232.263 141.037 232.424 140.995 232.567 140.914C232.711 140.834 232.831 140.718 232.916 140.578C235.022 137.607 237.54 134.952 240.392 132.692C240.569 132.513 240.667 132.272 240.667 132.021C240.667 131.77 240.569 131.529 240.392 131.35Z" fill="white"/>
<path d="M180.538 170.433L162.442 141.975L183.396 130.738L188.896 152.45L227.647 173.419C229.177 172.867 230.834 172.774 232.417 173.149C233.999 173.524 235.438 174.353 236.558 175.533C237.678 176.713 238.431 178.194 238.725 179.795C239.019 181.397 238.842 183.049 238.215 184.551C237.587 186.053 236.537 187.34 235.191 188.255C233.846 189.169 232.264 189.672 230.639 189.702C229.013 189.732 227.414 189.288 226.036 188.423C224.658 187.559 223.561 186.311 222.879 184.833L180.538 170.433Z" fill="#A0616A"/>
<path d="M149.221 107.843C143.535 116.203 163.741 146.589 163.741 146.589C164.725 144.464 174.135 168.324 175.711 166.914C180.19 162.909 187.202 151.75 191.1 151.253C193.329 150.969 185.93 135.139 185.93 135.139C185.93 135.139 182.549 125.792 177.961 113.851C176.726 110.452 174.652 107.42 171.933 105.038C169.213 102.657 165.937 101.003 162.407 100.231C162.407 100.231 154.906 99.4834 149.221 107.843Z" fill="#FF6916"/>
<path d="M149.498 380.201L158.092 380.2L162.181 347.005L149.497 347.006L149.498 380.201Z" fill="#A0616A"/>
<path d="M147.306 377.391L149.725 377.391L159.169 373.545L164.231 377.39H164.232C167.092 377.39 169.835 378.528 171.858 380.554C173.881 382.579 175.017 385.326 175.017 388.191V388.542L147.306 388.543L147.306 377.391Z" fill="#2F2E41"/>
<path d="M189.425 380.201L198.019 380.2L202.108 347.005L189.424 347.006L189.425 380.201Z" fill="#A0616A"/>
<path d="M187.233 377.391L189.652 377.391L199.096 373.545L204.158 377.39H204.158C207.019 377.39 209.762 378.528 211.785 380.554C213.808 382.579 214.944 385.326 214.944 388.191V388.542L187.233 388.543L187.233 377.391Z" fill="#2F2E41"/>
<path d="M193.145 198.724L137.245 200.124C126.628 205.898 126.467 218.396 129.946 233.234C129.946 233.234 128.771 242.054 131.12 244.406C133.469 246.757 134.643 246.757 133.469 250.873C132.294 254.989 138.499 261.711 137.745 262.466C136.992 263.22 135.23 267.336 135.23 267.336L141.102 300.85C141.102 300.85 145.212 359.059 146.386 360.235C147.56 361.411 148.735 360.235 147.56 363.175C146.386 366.115 145.212 364.939 146.386 366.114C147.426 367.238 148.406 368.415 149.322 369.642H163.518C163.518 369.642 164.588 363.763 164.588 363.175C164.588 362.587 165.762 359.059 165.762 358.471C165.762 357.883 164.724 356.844 164.724 356.844C164.366 355.648 164.123 354.421 164.001 353.179C164.001 352.003 160.478 306.73 160.478 306.73L167.524 247.933L184.551 305.554C184.551 305.554 184.551 356.119 185.726 357.295C186.9 358.471 186.9 357.883 186.313 360.235C185.726 362.587 183.377 361.999 185.139 363.763C186.9 365.527 187.487 362.587 186.9 365.527L186.313 368.466L203.928 368.719C203.928 368.719 206.276 363.763 205.102 361.999C203.928 360.235 203.998 360.716 205.431 357.83C206.864 354.943 207.451 354.355 206.864 353.767C206.276 353.179 206.276 350.052 206.276 350.052L203.341 293.795C203.341 293.795 202.753 234.41 202.753 232.646C202.709 231.739 202.876 230.833 203.241 230.001V227.607L200.992 219.123L193.145 198.724Z" fill="#2F2E41"/>
<path d="M159.565 82.3291C169.157 82.3291 176.933 74.5423 176.933 64.9367C176.933 55.3312 169.157 47.5444 159.565 47.5444C149.973 47.5444 142.197 55.3312 142.197 64.9367C142.197 74.5423 149.973 82.3291 159.565 82.3291Z" fill="#A0616A"/>
<path d="M168.249 93.8242C171.991 96.0517 174.229 100.145 175.514 104.309C177.893 112.02 179.325 119.992 179.778 128.05L181.136 152.173L197.944 203.537C183.377 215.88 128.621 206.342 128.621 206.342C128.621 206.342 126.94 205.781 128.621 204.098C130.302 202.415 131.938 203.906 130.257 202.223C128.577 200.54 129.735 202.415 130.296 200.732C130.856 199.048 130.296 200.171 129.735 199.609C129.175 199.048 134.073 193.999 134.073 193.999L129.59 164.516L123.988 105.045C130.711 96.6294 144.232 91.6684 144.232 91.6684L147.726 85.371L165.195 86.7704L168.249 93.8242Z" fill="#FF6916"/>
<path d="M173.883 55.6964C175.233 56.7046 176.233 58.1114 176.742 59.7187C176.938 57.0921 176.95 54.4549 176.779 51.8265C176.575 49.9795 175.276 49.564 173.772 49.0827C172.415 48.6477 170.879 48.1564 170.466 46.3634C165.006 41.0449 155.502 41.3131 148.997 43.1682C145.418 44.1891 143.359 45.5007 143.175 46.2691L143.137 46.4273L142.991 46.5001C140.232 47.8814 139.695 52.2433 139.731 55.6592C139.798 62.095 142.017 69.4044 143.267 69.9982C143.333 70.0296 143.35 70.0173 143.379 69.9934C145.261 68.487 147.558 70.1078 148.567 70.989C149.162 66.989 151.079 63.3042 154.011 60.523C156.943 57.7418 160.721 56.0247 164.742 55.6459C166.055 55.5188 167.357 55.3001 168.64 54.9913C169.291 54.8227 169.959 54.7349 170.631 54.7296C171.788 54.712 172.923 55.0494 173.883 55.6964Z" fill="#2F2E41"/>
<path d="M281.704 212.583L315.114 178.608L323.917 151.436L309.752 145.699C302.735 152.787 295.511 174.485 295.511 174.485L272.707 205.133C272.525 205.2 272.344 205.272 272.165 205.357C271.115 205.853 270.211 206.612 269.539 207.561C268.868 208.509 268.453 209.615 268.333 210.772C268.213 211.928 268.393 213.096 268.856 214.162C269.319 215.229 270.048 216.157 270.974 216.859C271.9 217.56 272.991 218.011 274.142 218.167C275.292 218.322 276.464 218.178 277.542 217.748C278.621 217.319 279.571 216.617 280.3 215.712C281.029 214.807 281.512 213.73 281.704 212.583Z" fill="#FFB8B8"/>
<path d="M305.888 148.807L323.802 153.996L323.868 153.983C330.453 152.703 335.662 141.745 338.872 132.778C339.928 129.82 339.823 126.571 338.578 123.688C337.334 120.805 335.042 118.503 332.167 117.246C330.04 116.334 327.701 116.036 325.414 116.385C323.126 116.734 320.982 117.717 319.223 119.223L310.291 126.925L305.888 148.807Z" fill="#6C63FF"/>
<path d="M290.561 379.191L280.927 379.19L276.344 341.98L290.562 341.981L290.561 379.191Z" fill="#FFB8B8"/>
<path d="M293.019 376.041L290.307 376.041L279.72 371.73L274.046 376.041H274.045C270.838 376.041 267.763 377.316 265.496 379.587C263.228 381.857 261.954 384.937 261.954 388.148V388.541L293.018 388.543L293.019 376.041Z" fill="#2F2E41"/>
<path d="M333.309 379.191L323.675 379.19L319.092 341.98L333.311 341.981L333.309 379.191Z" fill="#FFB8B8"/>
<path d="M335.767 376.041L333.055 376.041L322.468 371.73L316.794 376.041H316.793C313.586 376.041 310.511 377.316 308.244 379.587C305.976 381.857 304.702 384.937 304.702 388.148V388.541L335.766 388.543L335.767 376.041Z" fill="#2F2E41"/>
<path d="M347.999 218.911C347.999 218.911 349.124 232.429 346.311 245.383C343.499 258.338 343.499 294.822 343.499 294.822L337.312 365.918L318.75 364.228L313.688 245.383L295.689 285.374L297.376 291.006L295.129 292.414C295.129 292.414 296.814 303.397 295.689 303.397C294.564 303.397 291.752 305.087 291.752 305.087L294.002 363.101L274.878 362.538L268.128 280.868L275.44 234.118L276.003 225.106L278.534 225.211L279.822 221.445L282.19 214.968L347.999 218.911Z" fill="#2F2E41"/>
<path d="M348.971 221.75L349.071 221.609C354.425 214.103 346.373 196.067 345.159 193.452L350.274 191.79L349.122 181.985L348.576 177.614L352.486 173.699L352.497 173.602L354.747 153.888L358.018 140.794C359.25 135.845 359.145 130.655 357.714 125.76C356.282 120.864 353.575 116.438 349.87 112.936L342.309 105.797L333.119 92.1808H318.3L313.218 101.792C308.292 102.932 303.921 105.766 300.868 109.802C297.814 113.837 296.27 118.817 296.506 123.875L297.658 149.081L293.15 180.466L293.147 186.146L288.073 191.792L289.181 197.339L285.32 198.996L283.615 206.963C282.91 207.895 278.252 214.113 278.252 215.813C278.252 216.068 278.441 216.315 278.844 216.589C282.018 218.741 299.56 223.128 307.324 220.017C315.594 216.706 348.469 221.673 348.8 221.724L348.971 221.75Z" fill="#46B20F"/>
<path d="M323.795 87.7853C334.634 87.7853 343.421 78.9862 343.421 68.1321C343.421 57.2779 334.634 48.4788 323.795 48.4788C312.956 48.4788 304.169 57.2779 304.169 68.1321C304.169 78.9862 312.956 87.7853 323.795 87.7853Z" fill="#FFB8B8"/>
<path d="M321.915 88.1035C324.954 88.0724 327.986 87.7814 330.976 87.2336C333.936 86.5507 340.467 81.4936 342.247 78.5061C343.569 76.2864 344.363 72.853 344.796 70.3638C345.381 67.0695 345.268 63.6889 344.465 60.4409C343.662 57.193 342.187 54.1502 340.135 51.5094C339.344 50.4031 338.269 49.5314 337.024 48.9866C336.914 48.9467 336.801 48.9118 336.687 48.8824C334.882 48.4564 333.246 47.5 331.988 46.136C331.743 45.8598 331.48 45.6017 331.198 45.3635C329.787 44.232 328.128 43.451 326.358 43.0844C323.498 42.3965 319.406 43.2585 314.198 45.6484C311.581 46.8491 308.677 46.5142 306.438 46.0881C306.313 46.0672 306.184 46.0796 306.064 46.124C305.945 46.1684 305.84 46.2432 305.758 46.3412C304.834 47.2561 303.598 47.7867 302.299 47.8266C301.505 47.8821 300.698 49.0069 299.726 50.4717C299.506 50.8042 299.248 51.1923 299.062 51.4291L299.024 50.9844L298.587 51.4929C297.9 52.2921 297.425 53.2524 297.208 54.2846C296.992 55.3167 297.039 56.387 297.346 57.3959C297.654 58.4047 298.211 59.3192 298.967 60.0543C299.722 60.7894 300.651 61.3211 301.667 61.5999C302.473 61.7925 303.296 61.9021 304.124 61.9272C304.626 61.9594 305.145 61.9926 305.644 62.0661C307.246 62.3517 308.747 63.0483 310 64.0881C311.253 65.1279 312.215 66.4752 312.793 67.9986C312.929 68.3506 313.144 68.6666 313.422 68.922C313.7 69.1775 314.032 69.3656 314.394 69.4719C314.756 69.5783 315.138 69.5999 315.509 69.5352C315.881 69.4704 316.232 69.3211 316.537 69.0986C317.044 68.6819 317.644 68.3942 318.286 68.2599C318.928 68.1256 319.593 68.1488 320.224 68.3275C320.772 68.6147 321.206 69.0822 321.451 69.6514C321.748 70.285 322.227 70.8158 322.826 71.1759C324.869 72.1649 325.127 76.7734 324.502 80.6369C323.899 84.361 322.589 87.0776 321.314 87.2432C320.333 87.3705 320.222 87.4434 320.156 87.6195L320.096 87.7771L320.21 87.9201C320.759 88.1032 321.34 88.1658 321.915 88.1035Z" fill="#2F2E41"/>
<path d="M305.632 150.909L296.198 138.872C286.589 141.522 269.538 156.741 269.538 156.741L234.522 171.957C233.353 171.76 232.153 171.876 231.043 172.291C229.933 172.706 228.952 173.407 228.198 174.323C227.444 175.239 226.945 176.337 226.75 177.508C226.555 178.678 226.671 179.88 227.087 180.991C227.503 182.102 228.204 183.084 229.12 183.837C230.035 184.591 231.133 185.09 232.302 185.284C233.471 185.478 234.671 185.36 235.78 184.942C236.889 184.524 237.869 183.82 238.62 182.903L284.49 170.088L305.632 150.909Z" fill="#FFB8B8"/>
<path d="M303.371 153.661L318.256 137.044L319.083 125.271C319.236 122.959 318.741 120.65 317.653 118.605C316.566 116.56 314.928 114.86 312.926 113.698C310.202 112.141 306.989 111.678 303.937 112.402C300.885 113.127 298.221 114.985 296.485 117.601C291.225 125.539 285.567 136.271 288.478 142.321L288.508 142.383L303.371 153.661Z" fill="#46B20F"/>
<path d="M166.175 216.116L127.488 196.275C124.736 194.863 123.824 191.12 125.456 187.93L150.681 138.609C152.312 135.419 155.878 133.972 158.63 135.383L197.318 155.224C200.069 156.636 200.981 160.379 199.35 163.569L174.124 212.89C172.493 216.08 168.927 217.527 166.175 216.116Z" fill="#E6E6E6"/>
<path d="M159.565 206.994L133.28 193.514C130.703 192.193 129.849 188.687 131.377 185.699L152.333 144.724C153.861 141.737 157.201 140.382 159.779 141.703L191.525 157.985C194.102 159.306 194.956 162.812 193.428 165.8L182.043 188.059C175.238 201.367 171.045 212.882 159.565 206.994Z" fill="white"/>
<path d="M172.561 184.618L149.28 172.678C148.995 172.475 148.793 172.176 148.71 171.836C148.627 171.496 148.669 171.138 148.829 170.826C148.988 170.514 149.254 170.271 149.578 170.139C149.902 170.008 150.262 169.998 150.593 170.11L173.874 182.05C174.159 182.253 174.361 182.552 174.444 182.892C174.527 183.232 174.485 183.591 174.325 183.902C174.166 184.214 173.9 184.457 173.576 184.589C173.252 184.72 172.892 184.731 172.561 184.618Z" fill="#6C63FF"/>
<path d="M151.998 180.477L146.685 177.752C146.4 177.549 146.198 177.25 146.115 176.91C146.032 176.57 146.074 176.211 146.234 175.9C146.393 175.588 146.659 175.344 146.983 175.213C147.307 175.082 147.667 175.071 147.998 175.184L153.311 177.909C153.596 178.112 153.798 178.411 153.881 178.751C153.964 179.091 153.921 179.449 153.762 179.761C153.603 180.072 153.337 180.316 153.013 180.448C152.689 180.579 152.329 180.589 151.998 180.477Z" fill="#6C63FF"/>
<path d="M158.813 190.377L144.09 182.826C143.805 182.623 143.603 182.324 143.52 181.984C143.437 181.644 143.479 181.285 143.639 180.974C143.798 180.662 144.064 180.418 144.388 180.287C144.712 180.155 145.072 180.145 145.403 180.258L160.126 187.808C160.411 188.012 160.613 188.31 160.696 188.65C160.779 188.991 160.736 189.349 160.577 189.661C160.418 189.972 160.152 190.216 159.828 190.347C159.504 190.479 159.144 190.489 158.813 190.377V190.377Z" fill="#6C63FF"/>
<path d="M181.774 166.604L158.492 154.665C158.208 154.461 158.006 154.163 157.923 153.823C157.84 153.483 157.882 153.124 158.041 152.812C158.201 152.501 158.467 152.257 158.791 152.126C159.115 151.994 159.475 151.984 159.806 152.097L183.087 164.036C183.372 164.239 183.574 164.538 183.657 164.878C183.74 165.218 183.698 165.577 183.538 165.889C183.379 166.2 183.113 166.444 182.789 166.575C182.465 166.707 182.105 166.717 181.774 166.604Z" fill="#6C63FF"/>
<path d="M161.211 162.463L155.898 159.738C155.613 159.535 155.411 159.236 155.328 158.896C155.245 158.556 155.287 158.198 155.446 157.886C155.606 157.575 155.872 157.331 156.196 157.199C156.52 157.068 156.88 157.058 157.211 157.17L162.524 159.895C162.809 160.098 163.011 160.397 163.094 160.737C163.176 161.077 163.134 161.436 162.975 161.747C162.816 162.059 162.55 162.303 162.226 162.434C161.902 162.565 161.541 162.576 161.211 162.463Z" fill="#6C63FF"/>
<path d="M168.026 172.363L153.303 164.812C153.018 164.609 152.816 164.31 152.733 163.97C152.65 163.63 152.692 163.271 152.851 162.96C153.011 162.648 153.277 162.405 153.601 162.273C153.925 162.142 154.285 162.131 154.616 162.244L169.339 169.795C169.624 169.998 169.826 170.297 169.909 170.637C169.991 170.977 169.949 171.335 169.79 171.647C169.631 171.958 169.365 172.202 169.041 172.334C168.717 172.465 168.356 172.475 168.026 172.363L168.026 172.363Z" fill="#6C63FF"/>
<path d="M134.116 173.177L125.376 140.594L148.732 136.167L147.476 158.531L178.164 190.173C179.788 190.106 181.397 190.515 182.794 191.348C184.191 192.181 185.315 193.403 186.031 194.866C186.746 196.328 187.021 197.967 186.822 199.583C186.623 201.199 185.959 202.722 184.91 203.966C183.862 205.211 182.474 206.123 180.917 206.592C179.36 207.06 177.7 207.065 176.14 206.605C174.58 206.145 173.188 205.241 172.132 204.003C171.077 202.764 170.404 201.245 170.196 199.63L134.116 173.177Z" fill="#A0616A"/>
<path d="M122.986 104.063C115.059 110.33 125.234 145.386 125.234 145.386C126.809 143.654 128.64 169.242 130.566 168.371C136.038 165.894 146.069 157.356 149.936 158.052C152.148 158.45 149.831 141.127 149.831 141.127C149.831 141.127 149.405 131.194 148.604 118.426C148.444 114.812 147.374 111.297 145.493 108.208C143.612 105.12 140.981 102.558 137.846 100.761C137.846 100.761 130.914 97.7954 122.986 104.063Z" fill="#FF6916"/>
<path d="M254.897 245.496L233.786 235.513C233.334 235.301 232.937 234.989 232.623 234.601C232.309 234.212 232.087 233.758 231.973 233.272C231.859 232.796 231.853 232.3 231.957 231.822C232.062 231.344 232.272 230.896 232.574 230.511C238.69 222.685 242.889 213.532 244.835 203.788C244.982 203.041 245.383 202.369 245.97 201.886C246.556 201.403 247.292 201.138 248.052 201.137C258.819 201.174 266.866 205.111 271.969 212.837C272.238 213.239 272.416 213.695 272.491 214.173C272.566 214.651 272.536 215.14 272.403 215.605C269.449 225.802 264.953 235.487 259.072 244.322C258.635 244.99 257.972 245.477 257.204 245.693C256.437 245.909 255.617 245.839 254.897 245.496Z" fill="#E6E6E6"/>
<path d="M261.108 231.494L244.965 223.861C244.564 223.672 244.254 223.33 244.104 222.911C243.954 222.492 243.977 222.031 244.166 221.629C244.356 221.227 244.697 220.917 245.115 220.767C245.533 220.617 245.994 220.639 246.395 220.829L262.538 228.462C262.736 228.556 262.915 228.688 263.063 228.851C263.21 229.014 263.325 229.205 263.399 229.412C263.473 229.62 263.506 229.839 263.495 230.059C263.484 230.279 263.431 230.495 263.337 230.694C263.243 230.893 263.111 231.072 262.948 231.22C262.785 231.368 262.595 231.482 262.388 231.557C262.181 231.631 261.961 231.664 261.741 231.653C261.522 231.642 261.306 231.588 261.108 231.494H261.108Z" fill="white"/>
<path d="M263.615 226.177L247.473 218.544C247.072 218.354 246.762 218.012 246.612 217.593C246.462 217.175 246.484 216.714 246.674 216.311C246.864 215.909 247.205 215.599 247.623 215.449C248.041 215.299 248.502 215.321 248.903 215.511L265.045 223.144C265.447 223.334 265.757 223.676 265.907 224.095C266.057 224.513 266.034 224.974 265.845 225.376C265.655 225.779 265.314 226.089 264.896 226.239C264.477 226.389 264.017 226.367 263.615 226.177V226.177Z" fill="white"/>
<path d="M242.046 59.2445L240.543 59.4093C233.843 33.0458 220.858 14.7815 202.988 6.59044C180.271 -3.82181 152.181 3.17021 123.892 26.2788C95.4585 49.5053 70.2877 86.1932 53.0166 129.586L51.5586 128.918C68.9056 85.3356 94.2055 48.4704 122.798 25.1147C151.534 1.64101 180.197 -5.40228 203.508 5.28259C221.891 13.7083 235.216 32.3681 242.046 59.2445Z" fill="#F2F2F2"/>
<path d="M76.2703 93.5795C72.3408 101.869 68.6032 110.457 65.1612 119.104C45.3543 168.867 35.317 219.688 36.1373 266.076L34.5892 265.911C33.7682 219.351 43.8343 168.354 63.7033 118.436C67.1551 109.764 70.9034 101.152 74.8442 92.8394L76.2703 93.5795Z" fill="#F2F2F2"/>
<path d="M75.5274 127.773C71.5979 136.062 67.8603 144.65 64.4183 153.297C44.6114 203.06 34.5741 253.881 35.3943 300.269L33.8463 300.104C33.0252 253.544 43.0914 202.547 62.9603 152.629C66.4122 143.957 70.1604 135.345 74.1013 127.032L75.5274 127.773Z" fill="#F2F2F2"/>
<path d="M33.9206 140.208C35.6319 137.632 34.619 133.945 31.6583 131.973C28.6976 130 24.9103 130.489 23.1991 133.065C21.4878 135.641 22.5007 139.328 25.4614 141.3C28.422 143.273 32.2094 142.784 33.9206 140.208Z" fill="#CCCCCC"/>
<path d="M398.31 233.223C400.021 230.647 399.008 226.96 396.048 224.987C393.087 223.015 389.3 223.504 387.588 226.08C385.877 228.655 386.89 232.342 389.851 234.315C392.811 236.287 396.599 235.798 398.31 233.223Z" fill="#CCCCCC"/>
</g>
<defs>
<clipPath id="clip0_17_1676">
<rect width="479.167" height="389.167" fill="white" transform="translate(0.333252 0.416626)"/>
</clipPath>
</defs>
</svg>
